HIERARCHY
ROOT Hips
{
	OFFSET -0.001795 -0.223333 0.028219
	CHANNELS 6 Xposition Yposition Zposition Zrotation Yrotation Xrotation 
	JOINT LeftUpLeg
	{
		OFFSET 0.069520 -0.091406 -0.006815
		CHANNELS 3 Zrotation Yrotation Xrotation
		JOINT LeftLeg
		{
			OFFSET 0.034277 -0.375199 -0.004496
			CHANNELS 3 Zrotation Yrotation Xrotation
			JOINT LeftFoot
			{
				OFFSET -0.013596 -0.397961 -0.043693
				CHANNELS 3 Zrotation Yrotation Xrotation
				JOINT LeftToe
				{
					OFFSET 0.026358 -0.055791 0.119288
					CHANNELS 3 Zrotation Yrotation Xrotation
					End Site
					{
						OFFSET 0.000000 0.000000 0.000000
					}
				}
			}
		}
	}
	JOINT RightUpLeg
	{
		OFFSET -0.067670 -0.090522 -0.004320
		CHANNELS 3 Zrotation Yrotation Xrotation
		JOINT RightLeg
		{
			OFFSET -0.038290 -0.382569 -0.008850
			CHANNELS 3 Zrotation Yrotation Xrotation
			JOINT RightFoot
			{
				OFFSET 0.015774 -0.398415 -0.042312
				CHANNELS 3 Zrotation Yrotation Xrotation
				JOINT RightToe
				{
					OFFSET -0.025372 -0.048144 0.123348
					CHANNELS 3 Zrotation Yrotation Xrotation
					End Site
					{
						OFFSET 0.000000 0.000000 0.000000
					}
				}
			}
		}
	}
	JOINT Spine
	{
		OFFSET -0.002533 0.108963 -0.026696
		CHANNELS 3 Zrotation Yrotation Xrotation
		JOINT Spine1
		{
			OFFSET 0.005487 0.135180 0.001092
			CHANNELS 3 Zrotation Yrotation Xrotation
			JOINT Spine2
			{
				OFFSET 0.001457 0.052922 0.025425
				CHANNELS 3 Zrotation Yrotation Xrotation
				JOINT Neck
				{
					OFFSET -0.002778 0.213870 -0.042857
					CHANNELS 3 Zrotation Yrotation Xrotation
					JOINT Head
					{
						OFFSET 0.005152 0.064970 0.051349
						CHANNELS 3 Zrotation Yrotation Xrotation
						End Site
						{
							OFFSET 0.000000 0.000000 0.000000
						}
					}
				}
				JOINT LeftShoulder
				{
					OFFSET 0.078845 0.121749 -0.034090
					CHANNELS 3 Zrotation Yrotation Xrotation
					JOINT LeftArm
					{
						OFFSET 0.090977 0.030469 -0.008868
						CHANNELS 3 Zrotation Yrotation Xrotation
						JOINT LeftForeArm
						{
							OFFSET 0.259612 -0.012772 -0.027456
							CHANNELS 3 Zrotation Yrotation Xrotation
							JOINT LeftHand
							{
								OFFSET 0.249234 0.008986 -0.001171
								CHANNELS 3 Zrotation Yrotation Xrotation
								End Site
								{
									OFFSET 0.000000 0.000000 0.000000
								}
							}
						}
					}
				}
				JOINT RightShoulder
				{
					OFFSET -0.081759 0.118833 -0.038615
					CHANNELS 3 Zrotation Yrotation Xrotation
					JOINT RightArm
					{
						OFFSET -0.096012 0.032551 -0.009143
						CHANNELS 3 Zrotation Yrotation Xrotation
						JOINT RightForeArm
						{
							OFFSET -0.253742 -0.013329 -0.021401
							CHANNELS 3 Zrotation Yrotation Xrotation
							JOINT RightHand
							{
								OFFSET -0.255298 0.007772 -0.005559
								CHANNELS 3 Zrotation Yrotation Xrotation
								End Site
								{
									OFFSET 0.000000 0.000000 0.000000
								}
							}
						}
					}
				}
			}
		}
	}
}
MOTION
Frames: 9
Frame Time: 0.050000
-0.059033 0.936327 0.279287 0.820798 -8.167839 0.369664 -3.101860 0.470060 3.630067 0.100472 0.104901 -3.430036 10.241433 20.743415 8.912783 0.000000 0.000000 0.000000 -4.538906 0.218888 -0.444552 5.882743 -0.516747 2.665909 -8.407207 -20.186948 3.896313 0.000000 0.000000 0.000000 0.360893 0.412284 -7.892118 -6.459995 3.039943 -1.342430 3.697761 4.546642 9.280731 10.119727 -4.501189 -20.244043 0.000000 0.000000 0.000000 -29.997193 -7.205784 2.174161 -48.765478 -3.373922 -4.918017 -3.048220 -24.761341 1.687294 0.000000 0.000000 0.000000 7.956394 20.348002 7.949550 3.277359 39.261365 -1.642037 -61.794661 13.904456 -6.540852 0.000000 0.000000 0.000000 
-0.058538 0.936292 0.278915 0.722772 -7.841918 0.188435 -3.089135 0.463410 3.591008 0.167509 0.096960 -3.380800 10.018583 20.363400 8.965443 0.000000 0.000000 0.000000 -4.193033 0.173217 0.018282 5.446916 -0.475282 2.015406 -8.825715 -21.043053 4.213291 0.000000 0.000000 0.000000 1.238067 0.426280 -7.358352 -7.220080 3.413161 -1.246062 3.278569 5.509567 8.445970 11.041232 -4.808468 -20.548401 0.000000 0.000000 0.000000 -29.725329 -7.737863 1.984310 -48.572086 -2.335602 -5.079581 -2.934343 -24.856658 1.608804 0.000000 0.000000 0.000000 3.744576 22.090291 8.248288 -6.832340 38.124852 -4.129277 -55.559073 4.384311 -0.953343 0.000000 0.000000 0.000000 
-0.058005 0.936276 0.278722 0.778421 -7.196030 0.102049 -3.382387 0.482967 3.657684 0.301716 0.071988 -3.042818 10.286719 20.883391 8.222261 0.000000 0.000000 0.000000 -3.859736 0.159545 -0.108514 5.201948 -0.460542 2.192917 -9.406868 -22.232100 4.628588 0.000000 0.000000 0.000000 1.282848 0.387202 -6.784951 -7.411061 3.480775 -1.572700 2.916945 6.240973 8.066797 12.385701 -5.502968 -20.295416 0.000000 0.000000 0.000000 -29.391867 -8.279138 1.865607 -48.606358 -0.905838 -5.471318 -2.928464 -25.200824 1.577968 0.000000 0.000000 0.000000 -0.244787 22.596605 7.905100 -12.927942 36.379871 -5.262379 -49.259377 -0.511596 1.325895 0.000000 0.000000 0.000000 
-0.057471 0.935928 0.278499 0.641243 -6.568180 -0.100807 -3.425007 0.540277 4.087843 0.533620 0.056203 -3.180582 10.455511 21.173493 8.239550 0.000000 0.000000 0.000000 -3.478333 0.117544 0.200470 5.317346 -0.481782 1.956546 -9.917069 -23.250035 5.122847 0.000000 0.000000 0.000000 1.556365 0.378721 -6.489011 -7.694520 3.609707 -1.683568 3.052444 6.533495 7.960843 12.985946 -5.596947 -21.169102 0.000000 0.000000 0.000000 -29.047059 -8.377020 1.685634 -48.911826 0.053517 -5.805618 -2.464336 -25.107867 1.443093 0.000000 0.000000 0.000000 -2.933483 22.752488 7.536765 -15.831375 34.655295 -5.503271 -46.222810 -1.729698 1.746843 0.000000 0.000000 0.000000 
-0.056847 0.935547 0.278190 0.611475 -6.318422 -0.200947 -3.489529 0.565356 4.262387 0.617543 0.053431 -3.291836 10.342187 21.036127 7.574169 0.000000 0.000000 0.000000 -3.388578 0.106774 0.266107 5.327833 -0.487407 2.116288 -10.273974 -23.940818 5.245360 0.000000 0.000000 0.000000 1.419219 0.361922 -6.347608 -7.749135 3.647162 -1.540331 3.140823 6.759400 7.567943 13.036514 -5.763631 -20.289167 0.000000 0.000000 0.000000 -29.474855 -7.775240 1.101068 -48.224298 1.236318 -6.087857 -2.626622 -25.265990 1.467277 0.000000 0.000000 0.000000 -3.672112 22.589213 7.372943 -16.912466 33.923383 -5.536508 -46.223922 -0.777788 1.407192 0.000000 0.000000 0.000000 
-0.056308 0.935075 0.278027 0.644512 -6.160571 -0.112449 -3.542303 0.565605 4.242209 0.920764 0.038609 -3.579654 10.263976 20.871823 7.957185 0.000000 0.000000 0.000000 -3.452841 0.109385 0.256840 5.651470 -0.524326 2.235580 -10.814518 -24.962785 5.553068 0.000000 0.000000 0.000000 1.109347 0.358782 -6.561914 -7.448753 3.509930 -1.446710 3.360415 7.235078 7.185256 13.014271 -5.657116 -20.369957 0.000000 0.000000 0.000000 -29.512265 -7.006427 0.357544 -48.218058 2.235985 -6.373184 -2.670593 -25.612356 1.467963 0.000000 0.000000 0.000000 -2.685464 22.108945 7.405947 -16.430223 34.467174 -5.512356 -50.035390 0.831639 0.920577 0.000000 0.000000 0.000000 
-0.055904 0.934536 0.277929 0.749133 -6.216911 -0.247039 -3.928312 0.593476 4.330817 1.435074 -0.001555 -3.694628 9.995131 20.423186 7.862802 0.000000 0.000000 0.000000 -3.533661 0.099638 0.454090 5.641373 -0.522931 2.300194 -10.616510 -24.596428 5.121305 0.000000 0.000000 0.000000 0.816798 0.346778 -6.595131 -7.152233 3.357898 -1.618857 3.515304 7.215571 7.332094 12.721124 -5.533348 -20.227146 0.000000 0.000000 0.000000 -30.013782 -6.064684 -0.263950 -47.805360 3.101455 -6.654025 -2.606761 -25.826144 1.471236 0.000000 0.000000 0.000000 -1.549858 22.201594 7.626916 -15.200298 34.944740 -5.361895 -56.317802 3.624435 -0.331224 0.000000 0.000000 0.000000 
-0.055790 0.933981 0.277711 0.732346 -6.321960 -0.551548 -3.870975 0.611146 4.500275 1.616013 -0.017595 -3.702865 10.163306 20.690810 8.141690 0.000000 0.000000 0.000000 -3.412179 0.081978 0.626587 5.756899 -0.534935 2.453432 -10.671045 -24.688092 5.064356 0.000000 0.000000 0.000000 0.406711 0.330951 -6.660903 -7.022684 3.314702 -1.378425 4.021428 7.212848 7.338916 12.063740 -5.244450 -19.840565 0.000000 0.000000 0.000000 -30.056940 -5.415220 -0.636814 -48.236267 3.876941 -7.039168 -2.263824 -26.860412 1.457141 0.000000 0.000000 0.000000 -0.495028 21.892766 7.687538 -13.137847 36.052162 -5.131524 -63.813856 6.478977 -2.039600 0.000000 0.000000 0.000000 
-0.056018 0.933178 0.277218 0.875427 -6.624194 -0.712011 -4.041356 0.602470 4.393203 1.865889 -0.057362 -3.384554 10.222453 20.780789 8.302487 0.000000 0.000000 0.000000 -3.678741 0.097726 0.581299 5.998639 -0.560432 3.035883 -10.711910 -24.753209 4.818202 0.000000 0.000000 0.000000 0.386010 0.344749 -6.894632 -7.077165 3.347698 -1.295008 4.232083 7.045920 7.495763 11.640582 -5.119622 -19.453616 0.000000 0.000000 0.000000 -30.499522 -5.089702 -0.734178 -48.285877 4.254353 -7.240714 -0.968572 -27.529476 1.203997 0.000000 0.000000 0.000000 0.809177 22.286597 8.026336 -10.662355 37.280370 -4.794581 -72.738204 10.151922 -5.004322 0.000000 0.000000 0.000000 
